<svg width="26" height="26" viewBox="0 0 26 26" fill="none" xmlns="http://www.w3.org/2000/svg">
<path fill-rule="evenodd" clip-rule="evenodd" d="M2.16663 12.7292C2.16663 12.2804 2.65165 11.9167 3.24996 11.9167H22.75C23.3483 11.9167 23.8333 12.2804 23.8333 12.7292C23.8333 13.1779 23.3483 13.5417 22.75 13.5417H3.24996C2.65165 13.5417 2.16663 13.1779 2.16663 12.7292Z" fill="white"/>
<path fill-rule="evenodd" clip-rule="evenodd" d="M2.16663 6.22916C2.16663 5.78043 2.85952 5.41666 3.71425 5.41666L22.2857 5.41665C23.1404 5.41665 23.8333 5.78042 23.8333 6.22915C23.8333 6.67789 23.1404 7.04165 22.2857 7.04165L3.71425 7.04166C2.85952 7.04166 2.16663 6.67789 2.16663 6.22916Z" fill="white"/>
<path fill-rule="evenodd" clip-rule="evenodd" d="M2.16663 19.2292C2.16663 18.7804 2.70554 18.4167 3.37033 18.4167L22.6296 18.4167C23.2944 18.4167 23.8333 18.7804 23.8333 19.2292C23.8333 19.6779 23.2944 20.0417 22.6296 20.0417L3.37033 20.0417C2.70554 20.0417 2.16663 19.6779 2.16663 19.2292Z" fill="white"/>
</svg>
