<svg width="17" height="17" viewBox="0 0 17 17" fill="none" xmlns="http://www.w3.org/2000/svg">
<path fill-rule="evenodd" clip-rule="evenodd" d="M11.9871 7.22498C11.6938 7.22498 11.4558 6.98698 11.4558 6.69373V5.17294C11.4558 3.68827 10.2481 2.48056 8.76345 2.48056H8.75212C8.03458 2.48056 7.36237 2.75681 6.85449 3.26044C6.34308 3.76619 6.06045 4.44123 6.05762 5.16089V6.69373C6.05762 6.98698 5.81962 7.22498 5.52637 7.22498C5.23312 7.22498 4.99512 6.98698 4.99512 6.69373V5.17294C4.99937 4.15294 5.39391 3.21156 6.10578 2.50606C6.81837 1.79985 7.75903 1.39114 8.76558 1.41806C10.8339 1.41806 12.5183 3.10248 12.5183 5.17294V6.69373C12.5183 6.98698 12.2803 7.22498 11.9871 7.22498" fill="#6D47D3"/>
<path fill-rule="evenodd" clip-rule="evenodd" d="M6.05062 7.17456C4.86204 7.17456 3.89587 8.14073 3.89587 9.32931V12.3674C3.89587 13.5559 4.86204 14.5221 6.05062 14.5221H11.463C12.6509 14.5221 13.6177 13.5559 13.6177 12.3674V9.32931C13.6177 8.14073 12.6509 7.17456 11.463 7.17456H6.05062ZM11.463 15.5846H6.05062C4.27625 15.5846 2.83337 14.1417 2.83337 12.3674V9.32931C2.83337 7.55494 4.27625 6.11206 6.05062 6.11206H11.463C13.2374 6.11206 14.6802 7.55494 14.6802 9.32931V12.3674C14.6802 14.1417 13.2374 15.5846 11.463 15.5846V15.5846Z" fill="#6D47D3"/>
<path fill-rule="evenodd" clip-rule="evenodd" d="M8.75671 12.166C8.46346 12.166 8.22546 11.928 8.22546 11.6348V10.0616C8.22546 9.76833 8.46346 9.53033 8.75671 9.53033C9.04996 9.53033 9.28796 9.76833 9.28796 10.0616V11.6348C9.28796 11.928 9.04996 12.166 8.75671 12.166" fill="#6D47D3"/>
</svg>
