<svg width="28" height="28" viewBox="0 0 28 28" fill="none" xmlns="http://www.w3.org/2000/svg">
<path d="M19.8333 21.5017H15.1666L9.97497 24.955C9.20497 25.4683 8.16665 24.9201 8.16665 23.9867V21.5017C4.66665 21.5017 2.33331 19.1684 2.33331 15.6684V8.66832C2.33331 5.16832 4.66665 2.83499 8.16665 2.83499H19.8333C23.3333 2.83499 25.6666 5.16832 25.6666 8.66832V15.6684C25.6666 19.1684 23.3333 21.5017 19.8333 21.5017Z" stroke="white" stroke-width="1.5" stroke-miterlimit="10" stroke-linecap="round" stroke-linejoin="round"/>
<path d="M14 13.2533V13.0084C14 12.215 14.49 11.795 14.98 11.4567C15.4584 11.13 15.9366 10.71 15.9366 9.94003C15.9366 8.8667 15.0733 8.00333 14 8.00333C12.9267 8.00333 12.0634 8.8667 12.0634 9.94003" stroke="white" stroke-width="1.5" stroke-linecap="round" stroke-linejoin="round"/>
<path d="M13.9948 16.0417H14.0053" stroke="white" stroke-width="1.5" stroke-linecap="round" stroke-linejoin="round"/>
</svg>
