<svg width="26" height="23" viewBox="0 0 26 23" fill="none" xmlns="http://www.w3.org/2000/svg">
<path fill-rule="evenodd" clip-rule="evenodd" d="M24.4489 15.5449H19.5575C17.2653 15.5449 15.3996 13.7447 15.3984 11.5327C15.3984 9.31837 17.2641 7.51704 19.5575 7.51587H24.4489C24.9491 7.51587 25.3551 7.90787 25.3551 8.39087C25.3551 8.87387 24.9491 9.26587 24.4489 9.26587H19.5575C18.2634 9.26704 17.2109 10.2832 17.2109 11.5315C17.2109 12.7787 18.2646 13.7949 19.5575 13.7949H24.4489C24.9491 13.7949 25.3551 14.1869 25.3551 14.6699C25.3551 15.1529 24.9491 15.5449 24.4489 15.5449" fill="white"/>
<path fill-rule="evenodd" clip-rule="evenodd" d="M20.1105 12.3342H19.7335C19.2332 12.3342 18.8272 11.9422 18.8272 11.4592C18.8272 10.9762 19.2332 10.5842 19.7335 10.5842H20.1105C20.6107 10.5842 21.0167 10.9762 21.0167 11.4592C21.0167 11.9422 20.6107 12.3342 20.1105 12.3342" fill="white"/>
<mask id="mask0_727_10" style="mask-type:luminance" maskUnits="userSpaceOnUse" x="0" y="0" width="26" height="23">
<path fill-rule="evenodd" clip-rule="evenodd" d="M0.416687 0.5H25.355V22.8684H0.416687V0.5Z" fill="white"/>
</mask>
<g mask="url(#mask0_727_10)">
<path fill-rule="evenodd" clip-rule="evenodd" d="M7.66378 2.25C4.66712 2.25 2.2287 4.60433 2.2287 7.49767V15.8708C2.2287 18.7642 4.66712 21.1185 7.66378 21.1185H18.1086C21.1053 21.1185 23.5425 18.7642 23.5425 15.8708V7.49767C23.5425 4.60433 21.1053 2.25 18.1086 2.25H7.66378ZM18.1086 22.8685H7.66378C3.66782 22.8685 0.416199 19.729 0.416199 15.8708V7.49767C0.416199 3.63833 3.66782 0.5 7.66378 0.5H18.1086C22.1046 0.5 25.355 3.63833 25.355 7.49767V15.8708C25.355 19.729 22.1046 22.8685 18.1086 22.8685V22.8685Z" fill="white"/>
</g>
<path fill-rule="evenodd" clip-rule="evenodd" d="M13.3273 7.54446H6.80347C6.30322 7.54446 5.89722 7.15246 5.89722 6.66946C5.89722 6.18646 6.30322 5.79446 6.80347 5.79446H13.3273C13.8275 5.79446 14.2335 6.18646 14.2335 6.66946C14.2335 7.15246 13.8275 7.54446 13.3273 7.54446" fill="white"/>
</svg>
